<svg width="25" height="25" viewBox="0 0 25 25" fill="none" xmlns="http://www.w3.org/2000/svg">
<path d="M23.4386 12.7281C23.4386 11.8836 23.3641 11.2673 23.203 10.6281H12.7243V14.4401H18.8751C18.7511 15.3874 18.0815 16.814 16.5933 17.7726L16.5725 17.9003L19.8856 20.2625L20.1152 20.2836C22.2233 18.4917 23.4386 15.8553 23.4386 12.7281Z" fill="#4285F4"/>
<path d="M12.7236 22.7717C15.737 22.7717 18.2667 21.8586 20.1145 20.2837L16.5926 17.7727C15.6502 18.3776 14.3853 18.7999 12.7236 18.7999C9.77227 18.7999 7.26734 17.0081 6.3744 14.5314L6.24352 14.5417L2.79846 16.9955L2.7534 17.1108C4.58869 20.4662 8.35853 22.7717 12.7236 22.7717Z" fill="#34A853"/>
<path d="M6.37505 14.5315C6.13944 13.8924 6.00309 13.2075 6.00309 12.5C6.00309 11.7923 6.13944 11.1075 6.36266 10.4684L6.35642 10.3323L2.86817 7.83908L2.75405 7.88904C1.99763 9.28145 1.5636 10.8451 1.5636 12.5C1.5636 14.1548 1.99763 15.7184 2.75405 17.1108L6.37505 14.5315Z" fill="#FBBC05"/>
<path d="M12.7237 6.19995C14.8194 6.19995 16.2331 7.0331 17.0391 7.72934L20.1889 4.89889C18.2545 3.24401 15.737 2.22824 12.7237 2.22824C8.35856 2.22824 4.5887 4.53366 2.7534 7.88907L6.36203 10.4684C7.26737 7.99182 9.77231 6.19995 12.7237 6.19995Z" fill="#EB4335"/>
</svg>
