<svg width="33" height="32" viewBox="0 0 33 32" fill="none" xmlns="http://www.w3.org/2000/svg">
<path fill-rule="evenodd" clip-rule="evenodd" d="M19.6577 6.64861H20.1094C21.2485 6.64861 22.1719 7.5143 22.1719 8.5822V24.0509C22.1719 25.1188 21.2485 25.9845 20.1094 25.9845H12.8906C11.7515 25.9845 10.8281 25.1188 10.8281 24.0509V8.5822C10.8281 7.5143 11.7515 6.64861 12.8906 6.64861H13.3423C13.5713 7.48258 14.3788 8.0988 15.3398 8.0988H17.6602C18.6212 8.0988 19.4287 7.48258 19.6577 6.64861ZM18.5534 6.64861H14.4466C14.6249 6.93758 14.9581 7.132 15.3398 7.132H17.6602C18.0419 7.132 18.3751 6.93758 18.5534 6.64861ZM9.79688 8.5822C9.79688 6.98036 11.182 5.68181 12.8906 5.68181L20.1094 5.68181C21.818 5.68181 23.2031 6.98036 23.2031 8.5822V24.0509C23.2031 25.6528 21.818 26.9513 20.1094 26.9513H12.8906C11.182 26.9513 9.79688 25.6528 9.79688 24.0509L9.79688 8.5822Z" fill="white"/>
</svg>
