<svg width="30" height="25" viewBox="0 0 30 25" fill="none" xmlns="http://www.w3.org/2000/svg">
<path d="M8.78874 23.7609C5.55374 23.7609 2.53817 22.82 0 21.1965C2.15499 21.3359 5.95807 21.002 8.32358 18.7457C4.76508 18.5824 3.16026 15.8532 2.95094 14.6868C3.25329 14.8035 4.6953 14.9434 5.50934 14.6168C1.4159 13.5905 0.787928 9.99819 0.927477 8.90184C1.695 9.43835 2.99745 9.62496 3.50913 9.57831C-0.305207 6.8491 1.06703 2.74362 1.74151 1.85721C4.47882 5.64953 8.5812 7.77943 13.6564 7.89791C13.5607 7.47822 13.5102 7.04128 13.5102 6.59251C13.5102 3.37178 16.1134 0.760864 19.3247 0.760864C21.0025 0.760864 22.5144 1.47362 23.5757 2.6137C24.6969 2.35097 26.3843 1.73593 27.2092 1.20407C26.7934 2.69697 25.4989 3.94235 24.7159 4.40394C24.7224 4.41964 24.7095 4.38817 24.7159 4.40394C25.4037 4.2999 27.2648 3.94223 28 3.44342C27.6364 4.28211 26.264 5.67659 25.1377 6.45729C25.3473 15.6989 18.2765 23.7609 8.78874 23.7609Z" fill="#47ACDF"/>
</svg>
